# xmcd
# Track frame offsets:
# 150
# 16905
# 33200
# 49714
# 71731
# 85827
# 101979
# 119106
# 136143
# 148145
# 165944
# 184932
# 202490
# 216782
# 232606
# 247155
# 261739
# 276746
# 300536
# 317984
#
# Disc length: 4569 seconds
# Revision: 0
# Processed by: cddbd v1.5.2PL0 Copyright (c) Steve Scherf et al.
# Submitted via: VisiTrax 2.9.10.228 - For more info visit www.synapsa.com
#
DISCID=3b11d714
DTITLE=Harris, Emmylou - Heartaches and Highways - The Very Best Of Emmylou Har
DTITLE=ris
DYEAR=2005
DGENRE=Country
TTITLE0=Love Hurts (With Gram Parsons)
TTITLE1=Boulder To Birmingham
TTITLE2=Making Believe
TTITLE3=Pancho And Lefty
TTITLE4=One Of These Days
TTITLE5=(Lost His Love) On Our Last Date (Live)
TTITLE6=Born To Run
TTITLE7=Beneath Still Waters
TTITLE8=If I Could Only Win Your Love
TTITLE9=Together Again
TTITLE10=That Lovin' You Feelin' Again (With Roy Orbison)
TTITLE11=To Know Him Is To Love Him (With Dolly Parton and Linda Ronstadt)
TTITLE12=Two More Bottles Of Wine
TTITLE13=Wayfaring Stranger
TTITLE14=Calling My Children Home
TTITLE15=Green Pastures
TTITLE16=Orphan Girl
TTITLE17=Michaelangelo
TTITLE18=Here I Am
TTITLE19=The Connection
EXTD=Label: Rhino Records (USA) \n\nCredits: \nEmmylou Harris  Primary Arti
EXTD=st, Acoustic Guitar, Vocals \nMike Auldridge  Dobro \nTony Rice  Acous
EXTD=tic Guitar \nRicky Skaggs  Acoustic Guitar, Fiddle, Mandolin, Harmon
EXTD=y Vocals \nSam Bush  Fiddle, Mandolin, Harmony Vocals, Group Membe
EXTD=r \nRodney Crowell  Background Vocals, Hi String \nDolly Parton  Vocal
EXTD=s \nRy Cooder  Guitar (Tremolo) \nAlbert Lee  Acoustic Guitar, Piano
EXTD=, Electric Guitar \nDavid Lindley  Mandolin, Kona Guitar \nRoy Orbiso
EXTD=n  Vocals \nGram Parsons  Acoustic Guitar, Vocals \nLinda Ronstadt  Vo
EXTD=cals \nJames Burton  Electric Guitar \nRick Cunha  Acoustic Guitar \nB
EXTD=en Keith  Pedal Steel Guitar \nMickey Raphael  Harmonica \nJulie Mille
EXTD=r  Background Vocals \nJohn Baldwin  Beatbox \nLarry Atamanuik  Percus
EXTD=sion, Drums, Harmony Vocals, Group Member \nByron Berline  Mandoli
EXTD=n \nDianne Brooks  Background Vocals \nMalcolm Burn  Bass, Tambourin
EXTD=e \nDonivan Cowart  Harmony Vocals \nGlen D. Hardin  Piano, Electric P
EXTD=iano \nHank DeVito  Pedal Steel Guitar \nKenny Edwards  Acoustic Bas
EXTD=s \nSteve Fishell  Percussion, Pedal Steel Guitar, Hawaiian Guitar \nW
EXTD=ayne Goodwin  Tenor Saxophone \nEmory Gordy  Bass \nEd Greene  Drum
EXTD=s \nJim Hoke  Harmonica \nEthan Johns  Drums, Electric Guitar \nDarry
EXTD=l Johnson  Percussion, Bass Guitar, Vocals, Harmony Vocals, Djembe, ba
EXTD=ss pedals \nDonald Johnson  Electric Piano \nRuss Kunkel  Drums \nDani
EXTD=el Lanois  Dulcimer, Mandolin \nBuddy Miller  Electric Guitar, Vocals
EXTD=, 12-string Guitar, Mando-Guitar \nLarry Mullen Jr.  Hand Drums \nBil
EXTD=l Payne  Piano \nHerb Pedersen  Banjo, Rhythm Guitar, Background Vocal
EXTD=s, 12-string Guitar, Harmony Vocals \nAl Perkins  Acoustic Guitar, Ban
EXTD=jo, Dobro, Pedal Steel Guitar, Harmony Vocals, Group Member \nJohn Pie
EXTD=rce  Bass \nRay Pohlman  Bass \nFrank Reckard  Guitar \nCraig Safan  C
EXTD=onductor \nRandy Sharp  Acoustic Guitar, Background Vocals \nTrevor Ve
EXTD=itch  Acoustic Guitar \nJohn Ware  Drums \nRoy Huskey Jr.  Harmony Voc
EXTD=als, Upright Bass, Group Member \nGerry McGee  Electric Guitar \nJon R
EXTD=andall Stewart  Acoustic Guitar, Mandolin, Harmony Vocals, Group Membe
EXTD=r \nBarry Tashian  Rhythm Guitar, Vocals \nJai Winding  Piano \nBrad
EXTD=y Blade Jr.  Percussion, Drums, Vocals \nMike Bowden  Bass \nTony Hal
EXTD=l  Bass, Guitar, Drums \nFayssoux Starling McLean  Background Vocals
EXTD=, Harmony Vocals \nRonnie Tutt  Drums
EXTT0=
EXTT1=
EXTT2=
EXTT3=
EXTT4=
EXTT5=
EXTT6=
EXTT7=
EXTT8=
EXTT9=
EXTT10=
EXTT11=
EXTT12=
EXTT13=
EXTT14=
EXTT15=
EXTT16=
EXTT17=
EXTT18=
EXTT19=
PLAYORDER=
